HIERARCHY
ROOT Hips
{
	OFFSET 0.000000 0.000000 0.000000
	CHANNELS 6 Xposition Yposition Zposition Zrotation Yrotation Xrotation
	JOINT Spine
	{
		OFFSET 0.000000 0.000000 -0.744707
		CHANNELS 6 Xposition Yposition Zposition Zrotation Yrotation Xrotation
		JOINT Spine1
		{
			OFFSET 0.000000 0.000000 -2.032240
			CHANNELS 6 Xposition Yposition Zposition Zrotation Yrotation Xrotation
			JOINT Neck
			{
				OFFSET 0.000000 0.000000 -2.213880
				CHANNELS 6 Xposition Yposition Zposition Zrotation Yrotation Xrotation
				JOINT Head
				{
					OFFSET 0.000000 0.181636 -1.407680
					CHANNELS 6 Xposition Yposition Zposition Zrotation Yrotation Xrotation
					End Site
					{
						OFFSET 0.000000 0.000000 -1.816356
					}
				}
			}
			JOINT LeftShoulder
			{
				OFFSET 0.365767 -0.048012 -1.787590
				CHANNELS 6 Xposition Yposition Zposition Zrotation Yrotation Xrotation
				JOINT LeftArm
				{
					OFFSET 1.305160 0.000000 0.000000
					CHANNELS 6 Xposition Yposition Zposition Zrotation Yrotation Xrotation
					JOINT LeftForeArm
					{
						OFFSET 2.559210 0.000000 0.000000
						CHANNELS 6 Xposition Yposition Zposition Zrotation Yrotation Xrotation
						JOINT LeftHand
						{
							OFFSET 2.378450 0.000000 0.000000
							CHANNELS 6 Xposition Yposition Zposition Zrotation Yrotation Xrotation
							End Site
							{
								OFFSET 1.362267 0.000000 0.000000
							}
						}
					}
				}
			}
			JOINT RightShoulder
			{
				OFFSET -0.360721 -0.048012 -1.787590
				CHANNELS 6 Xposition Yposition Zposition Zrotation Yrotation Xrotation
				JOINT RightArm
				{
					OFFSET -1.305160 0.000000 0.000000
					CHANNELS 6 Xposition Yposition Zposition Zrotation Yrotation Xrotation
					JOINT RightForeArm
					{
						OFFSET -2.559210 0.000000 0.000000
						CHANNELS 6 Xposition Yposition Zposition Zrotation Yrotation Xrotation
						JOINT RightHand
						{
							OFFSET -2.378450 0.000000 0.000000
							CHANNELS 6 Xposition Yposition Zposition Zrotation Yrotation Xrotation
							End Site
							{
								OFFSET -1.362267 0.000000 0.000000
							}
						}
					}
				}
			}
		}
	}
	JOINT LeftUpLeg
	{
		OFFSET 0.908180 0.000000 0.000000
		CHANNELS 6 Xposition Yposition Zposition Zrotation Yrotation Xrotation
		JOINT LeftLeg
		{
			OFFSET 0.000000 -0.000003 3.819490
			CHANNELS 6 Xposition Yposition Zposition Zrotation Yrotation Xrotation
			JOINT LeftFoot
			{
				OFFSET 0.000000 -0.000003 4.004300
				CHANNELS 6 Xposition Yposition Zposition Zrotation Yrotation Xrotation
				JOINT LeftToeBase
				{
					OFFSET 0.000000 1.362270 0.590317
					CHANNELS 6 Xposition Yposition Zposition Zrotation Yrotation Xrotation
					End Site
					{
						OFFSET 0.000000 0.363271 0.000000
					}
				}
			}
		}
	}
	JOINT RightUpLeg
	{
		OFFSET -0.908180 0.000000 0.000000
		CHANNELS 6 Xposition Yposition Zposition Zrotation Yrotation Xrotation
		JOINT RightLeg
		{
			OFFSET 0.000000 -0.000003 3.819490
			CHANNELS 6 Xposition Yposition Zposition Zrotation Yrotation Xrotation
			JOINT RightFoot
			{
				OFFSET 0.000000 -0.000003 4.004300
				CHANNELS 6 Xposition Yposition Zposition Zrotation Yrotation Xrotation
				JOINT RightToeBase
				{
					OFFSET 0.000000 1.362270 0.590317
					CHANNELS 6 Xposition Yposition Zposition Zrotation Yrotation Xrotation
					End Site
					{
						OFFSET 0.000000 0.363271 0.000000
					}
				}
			}
		}
	}
}
MOTION
Frames: 8
Frame Time: 0.016667
-1.172897 1.838407 -7.610187 0.395973 1.288243 9.136391 -0.000000 -0.000000 -0.744706 3.410690 -3.658731 -17.869875 0.000000 0.000003 -2.032241 1.612888 12.151876 6.187551 0.000000 0.000001 -2.213884 -3.122261 1.480463 12.440283 0.000000 0.181636 -1.407679 -4.575715 -7.386683 1.765630 0.365767 -0.048012 -1.787591 -2.975575 20.922346 -9.192384 1.305162 -0.000000 -0.000003 12.743823 -1.583337 -9.914386 2.559211 -0.000000 0.000001 -0.439127 -2.216952 -5.867787 2.378450 0.000001 0.000001 -19.438044 -5.889853 -4.866261 -0.360721 -0.048011 -1.787591 5.724752 -16.841421 -0.568950 -1.305160 -0.000000 -0.000002 -21.628974 15.740705 34.549747 -2.559210 0.000001 0.000001 -91.865068 -30.938862 30.670251 -2.378452 -0.000000 -0.000000 16.947395 -46.929052 -8.627362 0.908180 -0.000000 0.000001 -15.569876 12.540261 -21.869250 -0.000000 -0.000002 3.819490 -4.162731 -0.368255 22.726000 -0.000000 -0.000003 4.004301 -18.177160 -8.770360 0.853049 -0.000000 1.362270 0.590317 0.000006 0.000002 0.000003 -0.908180 -0.000000 0.000001 5.435911 -20.657487 -24.249344 0.000001 -0.000003 3.819489 -12.195680 18.491711 27.121015 0.000001 -0.000002 4.004301 47.763342 14.820348 -7.157214 -0.000000 1.362269 0.590315 0.000001 -0.000004 0.000004 
-1.173770 1.838430 -7.610147 0.403053 1.279562 9.135818 0.000000 -0.000000 -0.744704 3.404716 -3.653256 -17.877067 -0.000000 0.000002 -2.032236 1.611895 12.155066 6.192381 0.000000 0.000000 -2.213880 -3.171114 1.507708 12.455023 -0.000000 0.181637 -1.407682 -4.629379 -7.396565 1.716417 0.365767 -0.048011 -1.787588 -2.968893 20.912545 -9.197074 1.305162 -0.000000 -0.000001 12.737771 -1.578812 -9.920551 2.559210 -0.000002 0.000000 -0.443991 -2.231327 -5.872168 2.378452 -0.000000 0.000002 -19.449973 -5.842194 -4.878332 -0.360721 -0.048011 -1.787587 5.717066 -16.846457 -0.569063 -1.305161 -0.000000 0.000003 -21.601802 15.736539 34.620009 -2.559211 0.000001 0.000000 -91.890510 -31.009906 30.710344 -2.378449 0.000001 0.000002 16.920344 -46.928823 -8.661779 0.908180 -0.000000 0.000001 -15.550474 12.559973 -21.859288 -0.000000 -0.000002 3.819489 -4.184814 -0.362540 22.717308 -0.000001 -0.000001 4.004302 -18.186892 -8.815310 0.864823 -0.000000 1.362270 0.590317 -0.000000 -0.000001 -0.000003 -0.908180 -0.000000 0.000002 5.437789 -20.639081 -24.247836 0.000001 -0.000003 3.819489 -12.183962 18.478932 27.119392 0.000002 -0.000001 4.004301 47.739249 14.810000 -7.164656 -0.000000 1.362270 0.590316 0.000002 -0.000000 0.000004 
-1.174628 1.838608 -7.609982 0.402880 1.279397 9.128691 -0.000000 -0.000000 -0.744707 3.404911 -3.655226 -17.872764 0.000000 0.000000 -2.032241 1.611726 12.158125 6.188957 -0.000000 0.000000 -2.213879 -3.228945 1.528979 12.450441 -0.000000 0.181637 -1.407684 -4.689151 -7.381929 1.697139 0.365767 -0.048012 -1.787591 -2.965153 20.898072 -9.202750 1.305161 -0.000000 -0.000003 12.732533 -1.573395 -9.891764 2.559211 -0.000001 -0.000004 -0.443728 -2.237948 -5.879736 2.378449 0.000000 0.000002 -19.454800 -5.842019 -4.885702 -0.360722 -0.048012 -1.787589 5.723287 -16.851598 -0.557892 -1.305161 -0.000000 -0.000002 -21.603081 15.720944 34.620754 -2.559210 0.000001 0.000002 -91.906295 -31.020144 30.711549 -2.378450 0.000001 0.000000 16.980993 -46.928737 -8.706224 0.908180 -0.000000 -0.000000 -15.528437 12.571691 -21.845378 -0.000000 -0.000002 3.819490 -4.170127 -0.367514 22.709413 -0.000001 -0.000002 4.004299 -18.216340 -8.777998 0.863338 -0.000000 1.362270 0.590317 0.000006 -0.000001 -0.000000 -0.908180 -0.000000 -0.000001 5.458328 -20.626522 -24.248261 -0.000001 -0.000003 3.819489 -12.223817 18.490364 27.118981 0.000001 -0.000001 4.004298 47.745515 14.785437 -7.184270 -0.000000 1.362270 0.590317 0.000005 0.000000 0.000002 
-1.175332 1.838418 -7.609899 0.412114 1.268828 9.128322 0.000000 0.000000 -0.744708 3.396640 -3.643643 -17.876256 0.000000 0.000000 -2.032238 1.610061 12.157481 6.193358 -0.000000 0.000000 -2.213878 -3.279101 1.547549 12.449808 0.000000 0.181636 -1.407676 -4.740823 -7.373336 1.669657 0.365767 -0.048012 -1.787590 -2.973446 20.900645 -9.210989 1.305160 0.000000 0.000001 12.734985 -1.592343 -9.866616 2.559212 -0.000001 -0.000002 -0.439435 -2.232463 -5.889511 2.378449 0.000000 0.000002 -19.465754 -5.848977 -4.893598 -0.360721 -0.048012 -1.787588 5.719137 -16.866097 -0.563406 -1.305161 0.000001 -0.000000 -21.590902 15.722747 34.604976 -2.559209 -0.000001 -0.000001 -91.915857 -31.000668 30.706382 -2.378450 0.000000 0.000002 17.001348 -46.932252 -8.706150 0.908180 -0.000000 0.000000 -15.492112 12.594418 -21.832247 -0.000000 -0.000002 3.819490 -4.208757 -0.353696 22.696281 -0.000000 -0.000002 4.004301 -18.221258 -8.783148 0.864167 0.000000 1.362270 0.590317 -0.000007 0.000002 -0.000000 -0.908180 -0.000000 -0.000001 5.454226 -20.610931 -24.261870 0.000001 -0.000002 3.819490 -12.244986 18.509015 27.132491 0.000001 -0.000001 4.004301 47.767778 14.796462 -7.181347 0.000000 1.362268 0.590317 0.000003 -0.000000 -0.000001 
-1.176150 1.838444 -7.609684 0.411512 1.272443 9.120358 0.000000 0.000000 -0.744707 3.395285 -3.650454 -17.875167 -0.000000 0.000001 -2.032236 1.609679 12.157889 6.196698 0.000000 0.000000 -2.213879 -3.318297 1.571599 12.461663 -0.000000 0.181636 -1.407679 -4.783246 -7.374799 1.627035 0.365767 -0.048012 -1.787588 -2.977107 20.894519 -9.204003 1.305162 0.000000 -0.000003 12.747779 -1.586751 -9.884580 2.559210 0.000000 -0.000001 -0.451057 -2.236446 -5.879971 2.378448 0.000001 0.000002 -19.457051 -5.839716 -4.886366 -0.360721 -0.048012 -1.787589 5.713119 -16.875994 -0.566756 -1.305160 0.000001 -0.000000 -21.567642 15.724424 34.579113 -2.559211 0.000001 0.000004 -91.929278 -30.972452 30.714223 -2.378449 0.000000 0.000002 16.993366 -46.892896 -8.665843 0.908180 0.000000 0.000001 -15.542295 12.554489 -21.834786 -0.000000 -0.000002 3.819490 -4.198461 -0.287212 22.688901 -0.000001 -0.000002 4.004300 -18.158254 -8.803189 0.875769 -0.000000 1.362270 0.590316 -0.000002 0.000001 0.000003 -0.908180 0.000000 -0.000000 5.471497 -20.607599 -24.270392 0.000000 -0.000001 3.819489 -12.237894 18.515593 27.155980 0.000000 -0.000001 4.004302 47.750679 14.801589 -7.195621 -0.000001 1.362269 0.590315 -0.000000 -0.000001 -0.000001 
-1.176778 1.838491 -7.609550 0.416935 1.269392 9.113115 0.000000 0.000000 -0.744707 3.389518 -3.648291 -17.875766 0.000000 0.000001 -2.032238 1.608490 12.155001 6.203927 -0.000000 0.000001 -2.213882 -3.348810 1.600807 12.450705 0.000001 0.181636 -1.407682 -4.821867 -7.383464 1.622885 0.365767 -0.048012 -1.787593 -2.980427 20.905421 -9.219506 1.305161 0.000000 0.000000 12.748889 -1.604445 -9.897832 2.559211 0.000000 0.000000 -0.456286 -2.239968 -5.854101 2.378453 -0.000000 0.000003 -19.452435 -5.842479 -4.860367 -0.360721 -0.048012 -1.787591 5.704872 -16.881398 -0.569399 -1.305160 0.000001 -0.000003 -21.546831 15.725945 34.597487 -2.559210 -0.000001 -0.000002 -91.939899 -30.991802 30.725326 -2.378449 -0.000000 -0.000001 17.050681 -46.918441 -8.710255 0.908180 0.000000 -0.000001 -15.554967 12.557048 -21.827036 0.000000 -0.000002 3.819490 -4.139607 -0.302600 22.687634 -0.000001 -0.000002 4.004301 -18.215162 -8.851957 0.879634 -0.000000 1.362270 0.590316 0.000003 0.000001 0.000007 -0.908180 0.000000 -0.000001 5.475634 -20.605875 -24.263658 -0.000001 -0.000003 3.819489 -12.274033 18.540919 27.140978 0.000001 -0.000001 4.004301 47.764722 14.774753 -7.212099 0.000001 1.362270 0.590317 -0.000001 0.000002 0.000001 
-1.177518 1.838294 -7.609241 0.420933 1.274429 9.108320 0.000000 0.000000 -0.744707 3.386118 -3.661873 -17.878059 0.000000 0.000000 -2.032238 1.608144 12.165368 6.212621 0.000000 0.000000 -2.213878 -3.380345 1.618096 12.446437 0.000000 0.181638 -1.407682 -4.856593 -7.386005 1.602406 0.365767 -0.048012 -1.787590 -2.976388 20.896713 -9.219374 1.305161 0.000000 0.000001 12.746664 -1.603489 -9.895351 2.559211 -0.000001 -0.000001 -0.460515 -2.235409 -5.847168 2.378451 -0.000000 -0.000001 -19.438968 -5.843641 -4.854019 -0.360721 -0.048012 -1.787589 5.698566 -16.887772 -0.582640 -1.305160 0.000001 0.000002 -21.523439 15.730718 34.600164 -2.559211 -0.000000 0.000002 -91.944393 -30.995586 30.726228 -2.378451 0.000001 -0.000004 17.058261 -46.943286 -8.723614 0.908180 0.000000 0.000000 -15.582467 12.547069 -21.830910 -0.000000 -0.000002 3.819488 -4.117973 -0.296281 22.689047 -0.000000 -0.000003 4.004302 -18.201141 -8.809988 0.877005 -0.000000 1.362270 0.590316 0.000005 0.000004 0.000002 -0.908180 -0.000000 0.000001 5.486104 -20.599721 -24.290535 0.000000 -0.000004 3.819489 -12.273520 18.550657 27.190083 0.000001 -0.000001 4.004300 47.764558 14.799876 -7.221293 -0.000000 1.362269 0.590316 0.000003 0.000001 0.000002 
-1.178143 1.838342 -7.609079 0.422243 1.274803 9.098413 -0.000000 0.000000 -0.744706 3.380540 -3.654228 -17.878341 0.000000 0.000001 -2.032237 1.606981 12.148727 6.223500 0.000000 0.000001 -2.213882 -3.398497 1.661501 12.436240 0.000000 0.181636 -1.407681 -4.890690 -7.426550 1.596356 0.365767 -0.048012 -1.787593 -2.975178 20.900553 -9.218160 1.305161 0.000000 -0.000003 12.741806 -1.615275 -9.875197 2.559210 -0.000002 -0.000001 -0.450715 -2.214635 -5.853299 2.378448 0.000001 0.000003 -19.442627 -5.838116 -4.860652 -0.360721 -0.048012 -1.787591 5.697512 -16.887807 -0.578172 -1.305160 0.000001 -0.000001 -21.523777 15.736529 34.577781 -2.559211 -0.000000 -0.000000 -91.929312 -30.995747 30.740738 -2.378449 -0.000000 -0.000000 17.084366 -46.963182 -8.716265 0.908180 0.000000 -0.000000 -15.589668 12.550955 -21.821227 -0.000000 -0.000003 3.819490 -4.112223 -0.295423 22.685691 -0.000001 -0.000001 4.004303 -18.195465 -8.813187 0.877755 -0.000000 1.362269 0.590317 0.000004 0.000001 -0.000000 -0.908180 0.000000 0.000001 5.500981 -20.590258 -24.286682 -0.000000 -0.000002 3.819489 -12.270918 18.540166 27.196340 0.000001 -0.000001 4.004301 47.733822 14.795001 -7.232792 -0.000000 1.362270 0.590317 0.000004 -0.000002 0.000002 
